# xmcd
#
# Track frame offsets:
# 180
# 8694
# 11959
# 22866
# 38598
# 48308
# 64815
# 84938
# 104652
# 112691
# 126991
# 136731
# 164040
# 166989
# 179071
#
# Disc length: 2666 seconds
#
#
# Revision: 0
# Processed by: cddbd v1.5.1PL0 Copyright (c) Steve Scherf et al.
# Submitted via: FreeRIP 2.92 
#
DISCID=bd0a680f
DTITLE=Jetzendorfer Hinterhofmusikanten - Live, Ohne Noten (Nur Nach Maﬂen)
DYEAR=1995
DGENRE=Country
TTITLE0=Einmarsch
TTITLE1=Prosit
TTITLE2=Alpbachmarsch
TTITLE3=Autobahn
TTITLE4=Appenzeller-Jodler
TTITLE5=Der Gogola ist da
TTITLE6=Tiger Rag
TTITLE7=Schweinshaxen Blues
TTITLE8=Weiﬂbier Dixie
TTITLE9=See you later Aligator
TTITLE10=La Bamba
TTITLE11=Schunkelrunde
TTITLE12=Geht no oa Maﬂ - Prosit
TTITLE13=Peter Gunn
TTITLE14=Wonderful World
EXTD=
EXTT0=
EXTT1=
EXTT2=
EXTT3=
EXTT4=
EXTT5=
EXTT6=
EXTT7=
EXTT8=
EXTT9=
EXTT10=
EXTT11=
EXTT12=
EXTT13=
EXTT14=
PLAYORDER=
